Coordinates
version=1
nRows=10
nColumns=40
inDegrees=yes

Units are S.I. units (second, meters, Newtons, ...)
Angles are in degrees.

endheader
time	pelvis_tilt	pelvis_list	pelvis_rotation	pelvis_tx	pelvis_ty	pelvis_tz	hip_flexion_r	hip_adduction_r	hip_rotation_r	knee_angle_r	knee_angle_r_beta	ankle_angle_r	subtalar_angle_r	mtp_angle_r	hip_flexion_l	hip_adduction_l	hip_rotation_l	knee_angle_l	knee_angle_l_beta	ankle_angle_l	subtalar_angle_l	mtp_angle_l	lumbar_extension	lumbar_bending	lumbar_rotation	arm_flex_r	arm_add_r	arm_rot_r	elbow_flex_r	pro_sup_r	wrist_flex_r	wrist_dev_r	arm_flex_l	arm_add_l	arm_rot_l	elbow_flex_l	pro_sup_l	wrist_flex_l	wrist_dev_l
     16.78250000	     -2.13321785	     -3.81795650	     -2.26271643	      1.02687076	      0.93667305	      0.44161705	     30.98089508	     -4.87554112	     -6.40234111	     54.51915782	     54.51915782	      3.06823013	    -10.81827529	     -1.42636937	     10.66382266	     -4.32533326	    -10.00448144	     19.64000308	     19.64000308	     14.12953212	     -4.44623943	     -1.83992809	    -11.87942110	      3.66855308	     -0.62880979	     -7.24430932	    -14.19044481	     -7.13342172	     31.32941611	     46.18851215	      0.00000000	      0.00000000	      8.65529089	    -14.69849038	     -4.74093201	     50.91970161	     46.04137432	      0.00000000	      0.00000000
     16.79671429	     -2.12827753	     -3.75618601	     -2.45730631	      1.02598428	      0.93694770	      0.44204457	     30.84321626	     -4.64099639	     -6.54776683	     51.12342958	     51.12342958	      3.40062125	    -10.41174818	     -1.19496405	      9.94445286	     -4.29712053	    -10.57007238	     19.02503926	     19.02503926	     14.30410841	     -3.72216396	     -2.17464393	    -12.04177083	      3.43665277	     -0.58503128	     -7.84324927	    -13.88145589	     -6.84102428	     31.64405462	     46.14740591	      0.00000000	      0.00000000	      9.36815735	    -14.88492749	     -4.53211282	     51.57328686	     46.04708741	      0.00000000	      0.00000000
     16.81092857	     -2.43616606	     -3.61065184	     -2.62328347	      1.02484484	      0.93647745	      0.44262017	     31.01905753	     -4.48294234	     -6.66454676	     47.63962189	     47.63962189	      3.62839234	     -9.87785854	     -0.81529154	      9.79071331	     -4.17041775	    -10.84586126	     18.75546441	     18.75546441	     14.45826113	     -3.59874776	     -2.32109963	    -11.83070055	      3.10721486	     -0.77195295	     -8.13009732	    -13.39522617	     -6.67481948	     31.76234730	     46.12728264	      0.00000000	      0.00000000	     10.02086751	    -15.18215637	     -4.53004491	     51.92476762	     46.06007927	      0.00000000	      0.00000000
     16.82514286	     -2.43515283	     -3.67887431	     -2.77470730	      1.02408664	      0.93654554	      0.44327928	     30.55627030	     -4.11258142	     -6.91272833	     43.75354911	     43.75354911	      3.84435126	     -8.97145147	     -0.46495011	      9.10027449	     -4.23261292	    -11.03981528	     18.18073178	     18.18073178	     14.66219544	     -3.25902029	     -2.57772555	    -11.95650317	      3.04664713	     -0.76306898	     -8.48364430	    -13.19599471	     -6.37606482	     32.05021429	     46.09052264	      0.00000000	      0.00000000	     10.66351224	    -15.21218364	     -4.38222546	     52.41096859	     46.06519003	      0.00000000	      0.00000000
     16.83935714	     -2.49295919	     -3.59337307	     -2.97251426	      1.02331891	      0.93631274	      0.44409728	     30.14630722	     -3.86431022	     -7.03850014	     39.89609167	     39.89609167	      3.95854490	     -7.81455177	     -0.16642088	      8.53963508	     -4.14401663	    -11.29374679	     17.71650567	     17.71650567	     14.77804391	     -3.09827221	     -2.93643124	    -12.02141212	      2.81215635	     -0.67275044	     -8.77268251	    -12.96915650	     -5.91827256	     32.52010374	     46.03618569	      0.00000000	      0.00000000	     11.35427823	    -15.31148988	     -4.21195657	     52.84985217	     46.07088532	      0.00000000	      0.00000000
     16.85357143	     -2.64424983	     -3.54231618	     -3.15160946	      1.02259248	      0.93586970	      0.44499485	     29.74282272	     -3.55605758	     -7.17766272	     36.01984062	     36.01984062	      3.96236914	     -6.48505118	      0.26097519	      8.13520444	     -4.08531349	    -11.39254245	     17.35171811	     17.35171811	     14.90776168	     -3.12484782	     -3.22713985	    -11.98101561	      2.63062245	     -0.65003307	     -8.90289828	    -12.77286990	     -5.53009911	     32.89528474	     45.99284148	      0.00000000	      0.00000000	     11.95460545	    -15.35538170	     -4.09323861	     53.14889976	     46.07637415	      0.00000000	      0.00000000
     16.86778571	     -2.68446436	     -3.42183552	     -3.35845750	      1.02205746	      0.93548046	      0.44589019	     29.12541241	     -3.35282189	     -7.40188742	     32.17546124	     32.17546124	      3.72325304	     -4.74090514	      0.04824059	      7.42471660	     -3.84207859	    -11.24063077	     16.55400332	     16.55400332	     14.13213905	     -3.95395308	     -5.19946191	    -12.04707140	      2.39753975	     -0.32747175	     -9.86201639	    -13.34527236	     -1.87448230	     35.47083665	     45.65054901	      0.00000000	      0.00000000	     12.83461081	    -15.39544113	     -3.25103254	     53.02202500	     46.09197187	      0.00000000	      0.00000000
     16.88200000	     -2.79598091	     -3.36334697	     -3.53463486	      1.02166332	      0.93497093	      0.44701976	     28.55837800	     -3.03313336	     -7.61698030	     28.57555021	     28.57555021	      3.62935812	     -2.97987950	      0.74823271	      6.98685977	     -3.78904238	    -11.32541866	     16.25659564	     16.25659564	     14.35090111	     -3.99341176	     -5.28800535	    -12.02114994	      2.23774724	     -0.30885777	     -9.59055249	    -13.21150956	     -1.63601538	     35.55095865	     45.63727373	      0.00000000	      0.00000000	     13.32383243	    -15.38300329	     -3.30200110	     53.25263420	     46.11278634	      0.00000000	      0.00000000
     16.89621429	     -3.03127619	     -3.22291014	     -3.73341468	      1.02136590	      0.93418902	      0.44827557	     28.16933236	     -2.74697146	     -7.72472415	     25.33621766	     25.33621766	      3.39170822	     -1.43677917	      1.49318610	      6.70437571	     -3.67016779	    -11.43606710	     16.01150288	     16.01150288	     14.54794605	     -4.05671348	     -5.41898453	    -11.80914003	      2.00515684	     -0.27394623	     -9.30165497	    -13.02518253	     -1.47856254	     35.70551182	     45.62470344	      0.00000000	      0.00000000	     13.71851062	    -15.35338926	     -3.31612266	     53.40601828	     46.12377951	      0.00000000	      0.00000000
     16.91042857	     -2.98872706	     -3.22258851	     -3.85569923	      1.02154113	      0.93387942	      0.44949457	     27.33823895	     -2.43657735	     -8.31309841	     22.33450459	     22.33450459	      3.29198455	      0.65220735	      2.42011838	      5.97996890	     -3.65411152	    -11.49302690	     15.54659590	     15.54659590	     14.69122006	     -4.04056178	     -5.64307250	    -11.91540753	      1.98402516	     -0.21791459	     -8.89448389	    -13.07186194	     -1.21727701	     35.90589577	     45.60639066	      0.00000000	      0.00000000	     14.09847323	    -15.20329201	     -3.33762001	     53.45239384	     46.13791786	      0.00000000	      0.00000000
